<?xml version="1.0" encoding="utf-8"?>
<!-- Generator: Adobe Illustrator 23.0.5, SVG Export Plug-In . SVG Version: 6.00 Build 0)  -->
<svg version="1.1" id="Layer_1" xmlns="http://www.w3.org/2000/svg" xmlns:xlink="http://www.w3.org/1999/xlink" x="0px" y="0px"
	 viewBox="0 0 850.4 236.6" style="enable-background:new 0 0 850.4 236.6;" xml:space="preserve">
<style type="text/css">
	.st0{fill:#00A7FF;}
	.st1{fill:#FFFFFF;}
	.st2{fill:#8F8F8F;}
	.st3{fill:#01A8FF;}
</style>
<g>
	<g>
		<path class="st0" d="M132.2,85.8v51.7h32.7v10.9h-44.7V85.8H132.2z"/>
		<path class="st0" d="M178.6,130.3c0.7,5.5,5.5,9.4,13.4,9.4c4.1,0,9.5-1.5,12-4.1l7.1,6.9c-4.7,4.8-12.5,7.2-19.3,7.2
			c-15.5,0-24.6-9.4-24.6-23.5c0-13.4,9.3-23.1,23.8-23.1c15,0,24.4,9.1,22.6,27.3H178.6z M202.9,121.2c-0.7-5.7-5.3-8.6-11.6-8.6
			c-6,0-10.9,2.9-12.5,8.6H202.9z"/>
		<path class="st0" d="M267.6,104.2l-19.1,44.3h-12l-19.2-44.3h12.1l6.2,14.6l6.9,18.6l6.8-18.4l6.2-14.7H267.6z"/>
		<path class="st0" d="M282.4,130.3c0.7,5.5,5.5,9.4,13.4,9.4c4.1,0,9.5-1.5,12-4.1l7.1,6.9c-4.7,4.8-12.5,7.2-19.3,7.2
			c-15.5,0-24.6-9.4-24.6-23.5c0-13.4,9.3-23.1,23.8-23.1c15,0,24.4,9.1,22.6,27.3H282.4z M306.8,121.2c-0.7-5.7-5.3-8.6-11.6-8.6
			c-6,0-10.9,2.9-12.5,8.6H306.8z"/>
		<path class="st0" d="M337,85.9v62.5h-11V85.9H337z"/>
		<path class="st0" d="M406.8,85.9v35.8c0,18.5-11.5,28-27.6,28c-15.3,0-28.3-9.1-28.3-28V85.9h11.9v35.8c0,11.3,6.5,17.3,16.5,17.3
			c9.9,0,15.6-6.5,15.6-17.3V85.9H406.8z"/>
		<path class="st0" d="M416.7,166.8v-62.5h10.4l0.7,6.1c3.5-4.9,9.5-7.1,14.5-7.1c13.8,0,23,10.1,23,23.1c0,12.9-8.3,23.1-22.6,23.1
			c-4.7,0-11.7-1.4-14.9-6.3v23.6H416.7z M454.3,126.4c0-6.9-4.7-12.5-12.7-12.5c-8,0-12.7,5.6-12.7,12.5s5.2,12.5,12.7,12.5
			C449.1,138.9,454.3,133.3,454.3,126.4z"/>
	</g>
	<g>
		<path class="st1" d="M485.9,126.8v20.7h-4.8v-60c9.1,0,18.3,0,27.4,0c27.2,0,27.2,39.2,0,39.2H485.9z M485.9,91.9v30.8h22.6
			c20.8,0,20.8-30.8,0-30.8H485.9z"/>
		<path class="st1" d="M561.9,103.6l0.1,5.7c-1.6-0.4-3.6-0.5-6.2-0.5c-8.2,0.1-14.6,6.4-14.6,14.1v24.7h-4.4v-42.3h4.1l0.2,6.9
			C541.1,112.1,547.3,102.4,561.9,103.6z"/>
		<path class="st1" d="M569.4,126.4c0-12.7,10-21.8,22.4-21.8c12.4,0,23.5,7.3,21.8,23.8h-39.8c0.9,9.9,8.9,15.7,18,15.7
			c5.8,0,12.6-2.2,15.9-6.4l3.1,2.4c-4.3,5.4-12,8.1-19,8.1C579.4,148.1,569.4,139.8,569.4,126.4z M609.7,124.7
			c-0.1-10.5-7.2-16.3-17.9-16.3c-9.1,0-17,5.9-18,16.3H609.7z"/>
		<path class="st1" d="M625,165.2v-60h4.3v10c3.5-6.4,10.5-10.6,19.1-10.6c12,0.4,21.5,8.1,21.5,21.8c0,14.2-10,21.9-22.4,21.9
			c-7.5,0-14.5-3.5-18.2-10.5v27.4H625z M665.5,126.4c0-11.9-8-17.7-18.1-17.7c-10.3,0-17.9,7.5-17.9,17.8
			c0,10.4,7.8,17.8,17.9,17.8C657.4,144.3,665.5,138.3,665.5,126.4z"/>
	</g>
	<g>
		<path class="st2" d="M682,145.6H678v-0.7h8.7v0.7h-3.9v10.1H682V145.6z"/>
		<path class="st2" d="M697.8,146l-4.2,6.4h-0.3l-4.2-6.4v9.7h-0.8v-10.9c0.4,0,0.6,0,1,0l4.2,6.3l4.1-6.3h1v10.9h-0.8V146z"/>
	</g>
	<path class="st3" d="M704.8,69.8c-16.4-1-29.9,12.5-28.9,28.9c0.9,13.5,11.8,24.5,25.4,25.4c16.4,1,29.9-12.5,28.9-28.9
		C729.3,81.6,718.3,70.7,704.8,69.8z M698.1,111.8l-12.4-12.3c-0.4-0.4-0.4-1.1,0-1.5l3.6-3.4c0.4-0.4,1-0.4,1.4,0l7.5,7.4
		c0.4,0.4,1,0.4,1.4,0L715.6,86c0.4-0.4,1-0.4,1.4,0l3.6,3.6c0.4,0.4,0.4,1,0,1.4l-21.1,20.7C699.1,112.2,698.5,112.2,698.1,111.8z"
		/>
</g>
</svg>
