<?xml version="1.0" encoding="utf-8"?>
<!-- Generator: Adobe Illustrator 23.0.5, SVG Export Plug-In . SVG Version: 6.00 Build 0)  -->
<svg version="1.1" id="Layer_1" xmlns="http://www.w3.org/2000/svg" xmlns:xlink="http://www.w3.org/1999/xlink" x="0px" y="0px"
	 viewBox="0 0 850.4 221.8" style="enable-background:new 0 0 850.4 221.8;" xml:space="preserve">
<style type="text/css">
	.st0{fill:#00A5FF;}
	.st1{fill:#8F8F8F;}
	.st2{fill:#012790;}
</style>
<g>
	<g>
		<path class="st0" d="M156.6,81.1v47.4h30v10h-41V81.1H156.6z"/>
		<path class="st0" d="M199.1,121.9c0.7,5,5.1,8.6,12.3,8.6c3.8,0,8.7-1.4,11-3.8l6.5,6.3c-4.3,4.4-11.4,6.6-17.7,6.6
			c-14.2,0-22.6-8.6-22.6-21.6c0-12.3,8.5-21.1,21.8-21.1c13.8,0,22.3,8.4,20.8,25H199.1z M221.4,113.6c-0.7-5.2-4.8-7.9-10.7-7.9
			c-5.5,0-10,2.6-11.5,7.9H221.4z"/>
		<path class="st0" d="M280.7,98l-17.5,40.7h-11L234.6,98h11.1l5.7,13.4l6.3,17l6.3-16.9l5.7-13.5H280.7z"/>
		<path class="st0" d="M294.3,121.9c0.7,5,5.1,8.6,12.3,8.6c3.8,0,8.7-1.4,11-3.8l6.5,6.3c-4.3,4.4-11.4,6.6-17.7,6.6
			c-14.2,0-22.6-8.6-22.6-21.6c0-12.3,8.5-21.1,21.8-21.1c13.8,0,22.3,8.4,20.8,25H294.3z M316.6,113.6c-0.7-5.2-4.8-7.9-10.7-7.9
			c-5.5,0-10,2.6-11.5,7.9H316.6z"/>
		<path class="st0" d="M344.3,81.2v57.3h-10.1V81.2H344.3z"/>
		<path class="st0" d="M408.4,81.2v32.9c0,17-10.6,25.7-25.3,25.7c-14,0-25.9-8.4-25.9-25.7V81.2h10.9v32.9c0,10.3,6,15.8,15.1,15.8
			c9.1,0,14.3-6,14.3-15.8V81.2H408.4z"/>
		<path class="st0" d="M417.4,155.4V98.1h9.5l0.7,5.6c3.2-4.5,8.7-6.5,13.3-6.5c12.7,0,21.1,9.3,21.1,21.1
			c0,11.8-7.6,21.1-20.8,21.1c-4.3,0-10.8-1.3-13.7-5.7v21.6H417.4z M451.9,118.3c0-6.3-4.3-11.5-11.7-11.5
			c-7.3,0-11.7,5.2-11.7,11.5c0,6.3,4.8,11.5,11.7,11.5C447.1,129.8,451.9,124.7,451.9,118.3z"/>
	</g>
	<g>
		<path d="M480.9,118.7v19h-4.4v-55c8.4,0,16.8,0,25.2,0c24.9,0,24.9,36,0,36H480.9z M480.9,86.7v28.2h20.7c19.1,0,19.1-28.2,0-28.2
			H480.9z"/>
		<path d="M550.5,97.4l0.1,5.2c-1.5-0.4-3.3-0.5-5.6-0.5c-7.5,0.1-13.4,5.9-13.4,13v22.6h-4V98.9h3.8l0.1,6.3
			C531.5,105.2,537.2,96.3,550.5,97.4z"/>
		<path d="M557.4,118.3c0-11.6,9.2-20,20.6-20c11.4,0,21.6,6.7,20,21.8h-36.5c0.8,9.1,8.1,14.4,16.5,14.4c5.3,0,11.6-2,14.6-5.9
			l2.9,2.2c-3.9,4.9-11,7.5-17.5,7.5C566.6,138.3,557.4,130.6,557.4,118.3z M594.4,116.7c-0.1-9.6-6.6-14.9-16.4-14.9
			c-8.4,0-15.6,5.4-16.5,14.9H594.4z"/>
		<path d="M608.4,153.9v-55h3.9v9.2c3.2-5.9,9.7-9.7,17.5-9.7c11,0.4,19.7,7.5,19.7,20c0,13-9.2,20.1-20.6,20.1
			c-6.9,0-13.3-3.2-16.7-9.7v25.1H608.4z M645.5,118.3c0-10.9-7.4-16.3-16.6-16.3c-9.4,0-16.4,6.8-16.4,16.3
			c0,9.5,7.1,16.3,16.4,16.3C638.1,134.7,645.5,129.2,645.5,118.3z"/>
	</g>
	<g>
		<path class="st1" d="M660.6,135.9H657v-0.7h8v0.7h-3.6v9.3h-0.8V135.9z"/>
		<path class="st1" d="M675.2,136.3l-3.8,5.8h-0.3l-3.8-5.8v8.9h-0.8v-10c0.4,0,0.5,0,0.9,0l3.8,5.8l3.8-5.8h0.9v10h-0.8V136.3z"/>
	</g>
	<path class="st2" d="M681.5,66.4c-15-1-27.5,11.5-26.5,26.5c0.8,12.4,10.9,22.5,23.3,23.3c15,1,27.5-11.5,26.5-26.5
		C704,77.3,693.9,67.2,681.5,66.4z M675.4,104.9l-11.3-11.3c-0.4-0.4-0.4-1,0-1.3l3.3-3.1c0.4-0.3,0.9-0.3,1.3,0l6.9,6.8
		c0.4,0.4,1,0.4,1.3,0l14.6-14.6c0.4-0.4,1-0.4,1.3,0l3.3,3.3c0.4,0.4,0.4,1,0,1.3l-19.4,19C676.4,105.3,675.8,105.3,675.4,104.9z"
		/>
</g>
</svg>
