<svg width="119" height="26" xmlns="http://www.w3.org/2000/svg">

 <g>
  <title>Layer 1</title>
  <path id="svg_1" fill-rule="evenodd" opacity="0.349" fill="#424770" d="m113,26l-107,0c-3.314,0 -6,-2.686 -6,-6l0,-14c0,-3.314 2.686,-6 6,-6l107,0c3.314,0 6,2.686 6,6l0,14c0,3.314 -2.686,6 -6,6zm5,-20c0,-2.761 -2.239,-5 -5,-5l-107,0c-2.761,0 -5,2.239 -5,5l0,14c0,2.761 2.239,5 5,5l107,0c2.761,0 5,-2.239 5,-5l0,-14z"/>
  <path id="svg_2" fill-rule="evenodd" opacity="0.502" fill="#424770" d="m60.3375,18.688l-1.305,0l1.01,-2.494l-2.01,-5.072l1.379,0l1.263,3.452l1.273,-3.452l1.379,0l-2.989,7.566zm-5.01,-2.178c-0.452,0 -0.916,-0.168 -1.336,-0.495l0,0.369l-1.347,0l0,-7.567l1.347,0l0,2.663c0.42,-0.316 0.884,-0.484 1.336,-0.484c1.41,0 2.378,1.136 2.378,2.757c0,1.62 -0.968,2.757 -2.378,2.757zm-0.284,-4.357c-0.368,0 -0.737,0.158 -1.052,0.474l0,2.252c0.315,0.315 0.684,0.473 1.052,0.473c0.758,0 1.284,-0.652 1.284,-1.599s-0.526,-1.6 -1.284,-1.6zm-7.852,3.862c-0.41,0.327 -0.873,0.495 -1.336,0.495c-1.4,0 -2.378,-1.137 -2.378,-2.757c0,-1.621 0.978,-2.757 2.378,-2.757c0.463,0 0.926,0.168 1.336,0.484l0,-2.663l1.358,0l0,7.567l-1.358,0l0,-0.369zm0,-3.388c-0.305,-0.316 -0.673,-0.474 -1.041,-0.474c-0.769,0 -1.295,0.653 -1.295,1.6c0,0.947 0.526,1.599 1.295,1.599c0.368,0 0.736,-0.158 1.041,-0.473l0,-2.252zm-8.019,1.494c0.084,0.8 0.716,1.347 1.599,1.347c0.485,0 1.021,-0.179 1.568,-0.495l0,1.127c-0.599,0.273 -1.199,0.41 -1.789,0.41c-1.589,0 -2.704,-1.158 -2.704,-2.799c0,-1.589 1.094,-2.715 2.599,-2.715c1.379,0 2.315,1.084 2.315,2.63c0,0.148 0,0.316 -0.021,0.495l-3.567,0zm1.221,-2.084c-0.653,0 -1.158,0.485 -1.221,1.211l2.294,0c-0.042,-0.716 -0.473,-1.211 -1.073,-1.211zm-4.768,0.832l0,3.515l-1.347,0l0,-5.262l1.347,0l0,0.526c0.379,-0.421 0.842,-0.652 1.294,-0.652c0.148,0 0.295,0.01 0.442,0.052l0,1.2c-0.147,-0.042 -0.315,-0.063 -0.473,-0.063c-0.442,0 -0.916,0.242 -1.263,0.684zm-6.009,1.252c0.084,0.8 0.715,1.347 1.599,1.347c0.484,0 1.021,-0.179 1.568,-0.495l0,1.127c-0.6,0.273 -1.2,0.41 -1.789,0.41c-1.589,0 -2.704,-1.158 -2.704,-2.799c0,-1.589 1.094,-2.715 2.599,-2.715c1.378,0 2.315,1.084 2.315,2.63c0,0.148 0,0.316 -0.021,0.495l-3.567,0zm1.22,-2.084c-0.652,0 -1.157,0.485 -1.22,1.211l2.294,0c-0.042,-0.716 -0.474,-1.211 -1.074,-1.211zm-5.925,4.347l-1.074,-3.578l-1.063,3.578l-1.21,0l-1.81,-5.262l1.347,0l1.063,3.578l1.063,-3.578l1.22,0l1.063,3.578l1.063,-3.578l1.347,0l-1.799,5.262l-1.21,0zm-8.231,0.126c-1.589,0 -2.715,-1.147 -2.715,-2.757c0,-1.621 1.126,-2.757 2.715,-2.757s2.705,1.136 2.705,2.757c0,1.61 -1.116,2.757 -2.705,2.757zm0,-4.388c-0.789,0 -1.336,0.663 -1.336,1.631s0.547,1.631 1.336,1.631c0.779,0 1.326,-0.663 1.326,-1.631s-0.547,-1.631 -1.326,-1.631zm-5.915,1.662l-1.21,0l0,2.6l-1.347,0l0,-7.241l2.557,0c1.474,0 2.526,0.958 2.526,2.326s-1.052,2.315 -2.526,2.315zm-0.189,-3.546l-1.021,0l0,2.452l1.021,0c0.779,0 1.326,-0.495 1.326,-1.221c0,-0.736 -0.547,-1.231 -1.326,-1.231zm100.177,4.064l-5.559,0c0.127,1.331 1.102,1.723 2.209,1.723c1.127,0 2.015,-0.238 2.789,-0.628l0,2.287c-0.771,0.428 -1.79,0.736 -3.147,0.736c-2.766,0 -4.704,-1.732 -4.704,-5.156c0,-2.892 1.644,-5.188 4.345,-5.188c2.697,0 4.105,2.295 4.105,5.203c0,0.275 -0.025,0.87 -0.038,1.023zm-4.085,-3.911c-0.71,0 -1.499,0.536 -1.499,1.815l2.936,0c0,-1.278 -0.74,-1.815 -1.437,-1.815zm-8.923,8.029c-0.994,0 -1.601,-0.419 -2.009,-0.718l-0.006,3.213l-2.839,0.604l-0.001,-13.254l2.5,0l0.148,0.701c0.392,-0.366 1.111,-0.89 2.224,-0.89c1.994,0 3.872,1.796 3.872,5.102c0,3.608 -1.858,5.242 -3.889,5.242zm-0.662,-7.829c-0.651,0 -1.06,0.238 -1.356,0.563l0.017,4.219c0.276,0.299 0.673,0.539 1.339,0.539c1.05,0 1.754,-1.143 1.754,-2.672c0,-1.485 -0.715,-2.649 -1.754,-2.649zm-8.297,-2.326l2.85,0l0,9.952l-2.85,0l0,-9.952zm0,-3.178l2.85,-0.606l0,2.313l-2.85,0.606l0,-2.313zm-3.039,6.383l0,6.747l-2.838,0l0,-9.952l2.455,0l0.178,0.839c0.665,-1.222 1.992,-0.974 2.37,-0.838l0,2.61c-0.361,-0.117 -1.494,-0.287 -2.165,0.594zm-6.086,3.256c0,1.673 1.792,1.152 2.155,1.007l0,2.311c-0.378,0.208 -1.064,0.376 -1.992,0.376c-1.685,0 -2.95,-1.241 -2.95,-2.922l0.013,-9.109l2.772,-0.59l0.002,2.466l2.156,0l0,2.421l-2.156,0l0,4.04zm-3.539,0.484c0,2.044 -1.627,3.21 -3.988,3.21c-0.979,0 -2.049,-0.19 -3.105,-0.644l0,-2.711c0.953,0.518 2.167,0.907 3.108,0.907c0.633,0 1.089,-0.17 1.089,-0.695c0,-1.355 -4.316,-0.845 -4.316,-3.988c0,-2.01 1.535,-3.213 3.838,-3.213c0.941,0 1.881,0.144 2.822,0.519l0,2.675c-0.864,-0.467 -1.961,-0.731 -2.824,-0.731c-0.595,0 -0.965,0.172 -0.965,0.615c0,1.278 4.341,0.67 4.341,4.056z"/>
 </g>
</svg>