<svg width="1440" height="881" viewBox="0 0 1440 881" fill="none" xmlns="http://www.w3.org/2000/svg">
<path fill-rule="evenodd" clip-rule="evenodd" d="M332.597 168.572C350.689 115.128 360.001 57.8473 360.001 0H191.924C191.924 30.8396 186.959 61.3772 177.314 89.8692C167.669 118.361 153.532 144.25 135.711 166.057C117.889 187.864 96.7313 205.162 73.446 216.964C50.1608 228.765 25.2038 234.84 7.34687e-06 234.84L0 440.5C47.2759 440.5 94.089 429.106 137.766 406.969C181.444 384.832 221.13 352.385 254.559 311.48C287.988 270.576 314.505 222.016 332.597 168.572ZM387.403 271.928C369.312 325.372 360 382.653 360 440.5H528.077C528.077 409.66 533.041 379.123 542.686 350.631C552.331 322.139 566.468 296.25 584.29 274.443C602.112 252.636 623.269 235.338 646.554 223.536C669.84 211.735 694.797 205.66 720 205.66V4.95911e-05C672.725 4.70625e-05 625.912 11.3939 582.234 33.5311C538.557 55.6683 498.871 88.1153 465.442 129.019C432.013 169.924 405.495 218.484 387.403 271.928ZM332.597 609.072C350.689 555.628 360.001 498.347 360.001 440.5H191.924C191.924 471.34 186.959 501.877 177.314 530.369C167.669 558.861 153.532 584.75 135.711 606.557C117.889 628.364 96.7313 645.662 73.446 657.464C50.1608 669.265 25.2038 675.34 7.34687e-06 675.34L0 881C47.2759 881 94.089 869.606 137.766 847.469C181.444 825.332 221.13 792.885 254.559 751.981C287.988 711.076 314.505 662.516 332.597 609.072ZM360 881C360 823.153 369.312 765.872 387.403 712.428C405.495 658.984 432.013 610.424 465.442 569.519C498.871 528.615 538.557 496.168 582.234 474.031C625.912 451.894 672.725 440.5 720 440.5V646.16C694.797 646.16 669.84 652.235 646.554 664.036C623.269 675.838 602.112 693.136 584.29 714.943C566.468 736.75 552.331 762.639 542.686 791.131C533.041 819.623 528.077 850.16 528.077 881H360ZM1080 440.5C1080 498.347 1070.69 555.628 1052.6 609.072C1034.5 662.516 1007.99 711.076 974.558 751.981C941.129 792.885 901.443 825.332 857.765 847.469C814.088 869.606 767.275 881 719.999 881V675.34C745.203 675.34 770.16 669.265 793.445 657.464C816.73 645.662 837.888 628.364 855.71 606.557C873.531 584.75 887.668 558.861 897.313 530.369C906.958 501.877 911.923 471.34 911.923 440.5H1080ZM1080 440.5C1080 382.653 1089.31 325.372 1107.4 271.928C1125.49 218.484 1152.01 169.924 1185.44 129.019C1218.87 88.1153 1258.56 55.6683 1302.23 33.5311C1345.91 11.3939 1392.72 4.70625e-05 1440 4.95911e-05V205.66C1414.8 205.66 1389.84 211.735 1366.55 223.536C1343.27 235.338 1322.11 252.636 1304.29 274.443C1286.47 296.25 1272.33 322.139 1262.69 350.631C1253.04 379.123 1248.08 409.66 1248.08 440.5H1080ZM1080 881C1080 823.153 1089.31 765.872 1107.4 712.428C1125.49 658.984 1152.01 610.424 1185.44 569.519C1218.87 528.615 1258.56 496.168 1302.23 474.031C1345.91 451.894 1392.72 440.5 1440 440.5V646.16C1414.8 646.16 1389.84 652.235 1366.55 664.036C1343.27 675.838 1322.11 693.136 1304.29 714.943C1286.47 736.75 1272.33 762.639 1262.69 791.131C1253.04 819.623 1248.08 850.16 1248.08 881H1080ZM1052.6 168.572C1070.69 115.128 1080 57.8473 1080 0H911.923C911.923 30.8396 906.958 61.3772 897.313 89.8692C887.668 118.361 873.531 144.25 855.71 166.057C837.888 187.864 816.73 205.162 793.445 216.964C770.16 228.765 745.203 234.84 719.999 234.84V440.5C767.275 440.5 814.088 429.106 857.765 406.969C901.443 384.832 941.129 352.385 974.558 311.48C1007.99 270.576 1034.5 222.016 1052.6 168.572Z" fill="url(#paint0_linear_56_813)"/>
<defs>
<linearGradient id="paint0_linear_56_813" x1="1385.5" y1="881" x2="718.205" y2="115.674" gradientUnits="userSpaceOnUse">
<stop stop-color="#00A5FF"/>
<stop offset="0.897893" stop-color="#938080" stop-opacity="0.07"/>
</linearGradient>
</defs>
</svg>
