<svg width="22" height="23" viewBox="0 0 22 23" fill="none" xmlns="http://www.w3.org/2000/svg">
<path d="M14.6666 3.83956H16.5C16.9862 3.83956 17.4525 4.03271 17.7963 4.37653C18.1401 4.72035 18.3333 5.18666 18.3333 5.67289V18.5062C18.3333 18.9925 18.1401 19.4588 17.7963 19.8026C17.4525 20.1464 16.9862 20.3396 16.5 20.3396H5.49996C5.01373 20.3396 4.54741 20.1464 4.2036 19.8026C3.85978 19.4588 3.66663 18.9925 3.66663 18.5062V5.67289C3.66663 5.18666 3.85978 4.72035 4.2036 4.37653C4.54741 4.03271 5.01373 3.83956 5.49996 3.83956H7.33329M8.24996 2.00623H13.75C14.2562 2.00623 14.6666 2.41663 14.6666 2.92289V4.75623C14.6666 5.26249 14.2562 5.67289 13.75 5.67289H8.24996C7.7437 5.67289 7.33329 5.26249 7.33329 4.75623V2.92289C7.33329 2.41663 7.7437 2.00623 8.24996 2.00623Z" stroke="#1D1E21" stroke-width="1.5" stroke-linecap="round" stroke-linejoin="round"/>
</svg>
