<svg width="180" height="41" viewBox="0 0 180 41" fill="none" xmlns="http://www.w3.org/2000/svg">
<path d="M4.52075 4.72302V19.8943H14.1228V23.0949H1V4.72302H4.52075Z" fill="#00A5FF"/>
<path fill-rule="evenodd" clip-rule="evenodd" d="M18.1237 17.7819C18.3477 19.3822 19.756 20.5344 22.0605 20.5344C23.2768 20.5344 24.8451 20.0863 25.5812 19.3182L27.6617 21.3346C26.2854 22.7429 24.0129 23.4471 21.9965 23.4471C17.4515 23.4471 14.7629 20.6945 14.7629 16.5336C14.7629 12.5968 17.4835 9.78015 21.7404 9.78015C26.1574 9.78015 28.8779 12.4687 28.3978 17.7819H18.1237ZM25.2612 15.1253C25.0371 13.4609 23.7248 12.5967 21.8364 12.5967C20.0761 12.5967 18.6358 13.4289 18.1557 15.1253H25.2612Z" fill="#00A5FF"/>
<path d="M44.2415 10.1322L38.6403 23.159H35.1195L29.4863 10.1322H33.0391L34.8635 14.4211L36.8799 19.8623L38.8963 14.4531L40.7207 10.1322H44.2415Z" fill="#00A5FF"/>
<path fill-rule="evenodd" clip-rule="evenodd" d="M48.5944 17.7819C48.8184 19.3822 50.2267 20.5344 52.5312 20.5344C53.7475 20.5344 55.3158 20.0863 56.0519 19.3182L58.1324 21.3346C56.7561 22.7429 54.4836 23.4471 52.4672 23.4471C47.9222 23.4471 45.2336 20.6945 45.2336 16.5336C45.2336 12.5968 47.9542 9.78015 52.2111 9.78015C56.6281 9.78015 59.3486 12.4687 58.8685 17.7819H48.5944ZM55.7319 15.1253C55.5078 13.4609 54.1955 12.5967 52.3071 12.5967C50.5468 12.5967 49.1065 13.4289 48.6264 15.1253H55.7319Z" fill="#00A5FF"/>
<path d="M64.5979 4.755V23.0949H61.3652V4.755H64.5979Z" fill="#00A5FF"/>
<path d="M85.114 4.755V15.2852C85.114 20.7264 81.7213 23.511 77.0163 23.511C72.5354 23.511 68.7266 20.8224 68.7266 15.2852V4.755H72.2153V15.2852C72.2153 18.5819 74.1357 20.3423 77.0483 20.3423C79.961 20.3423 81.6253 18.4219 81.6253 15.2852V4.755H85.114Z" fill="#00A5FF"/>
<path fill-rule="evenodd" clip-rule="evenodd" d="M87.9941 10.1642H91.0348L91.2588 11.9565C92.2831 10.5162 94.0434 9.8761 95.5157 9.8761C99.5806 9.8761 102.269 12.8527 102.269 16.6295C102.269 20.4063 99.8367 23.383 95.6118 23.383C94.2355 23.383 92.155 22.9669 91.2268 21.5586V28.4721H87.9941V10.1642ZM99.0365 16.6295C99.0365 14.6131 97.6602 12.9488 95.2917 12.9488C92.9552 12.9488 91.5469 14.6131 91.5469 16.6295C91.5469 18.646 93.0832 20.3103 95.2917 20.3103C97.5002 20.3103 99.0365 18.678 99.0365 16.6295Z" fill="#00A5FF"/>
<path fill-rule="evenodd" clip-rule="evenodd" d="M108.318 16.7576V22.8389H106.91V5.23511C109.599 5.23511 112.287 5.23511 114.976 5.23511C122.946 5.23511 122.946 16.7576 114.976 16.7576H108.318ZM108.318 6.51538V15.5413H114.944C121.057 15.5413 121.057 6.51538 114.944 6.51538H108.318Z" fill="white"/>
<path d="M130.595 9.94017L130.627 11.6045C130.147 11.4765 129.571 11.4445 128.835 11.4445C126.434 11.4765 124.546 13.3329 124.546 15.6054V22.8389H123.265V10.4203H124.482L124.514 12.4367C124.514 12.4367 126.338 9.5881 130.595 9.94017Z" fill="white"/>
<path fill-rule="evenodd" clip-rule="evenodd" d="M132.804 16.6295C132.804 12.9167 135.748 10.2281 139.397 10.2281C143.046 10.2281 146.311 12.3726 145.798 17.2056H134.116C134.372 20.1183 136.709 21.8146 139.397 21.8146C141.093 21.8146 143.11 21.1745 144.07 19.9262L144.998 20.6304C143.75 22.1987 141.478 23.0309 139.397 23.0309C135.748 23.0309 132.804 20.5663 132.804 16.6295ZM144.646 16.1174C144.614 13.0447 142.534 11.3484 139.397 11.3484C136.709 11.3484 134.404 13.0768 134.116 16.1174H144.646Z" fill="white"/>
<path fill-rule="evenodd" clip-rule="evenodd" d="M149.127 28.024V10.4203H150.375V13.3649C151.399 11.4765 153.48 10.2603 155.976 10.2603C159.497 10.3883 162.282 12.6608 162.282 16.6616C162.282 20.8225 159.337 23.095 155.688 23.095C153.48 23.095 151.431 22.0708 150.343 19.9903V28.024H149.127ZM161.001 16.6296C161.001 13.1409 158.633 11.4125 155.688 11.4125C152.68 11.4125 150.439 13.589 150.439 16.6296C150.439 19.6703 152.712 21.8467 155.688 21.8467C158.633 21.8787 161.001 20.1184 161.001 16.6296Z" fill="white"/>
<path d="M165.835 22.2627H164.683V22.0387H167.243V22.2627H166.091V25.2394H165.835V22.2627Z" fill="#8F8F8F"/>
<path d="M170.507 22.3908L169.291 24.2472H169.195L167.979 22.3908V25.2394H167.723V22.0387C167.851 22.0387 167.883 22.0387 168.011 22.0387L169.227 23.8951L170.443 22.0387H170.731V25.2394H170.475V22.3908H170.507Z" fill="#8F8F8F"/>
<path fill-rule="evenodd" clip-rule="evenodd" d="M179.982 7.47555C180.302 12.2766 176.301 16.2774 171.5 15.9574C167.531 15.7013 164.298 12.4686 164.042 8.49977C163.722 3.69875 167.723 -0.302104 172.524 0.0179646C176.493 0.274019 179.726 3.50671 179.982 7.47555ZM170.988 12.3726L177.197 6.2913C177.325 6.19528 177.325 6.00324 177.197 5.87521L176.141 4.81899C176.045 4.69096 175.853 4.69096 175.725 4.81899L171.052 9.49198C170.956 9.62001 170.764 9.62001 170.636 9.49198L168.427 7.31552C168.299 7.2195 168.139 7.2195 168.011 7.31552L166.955 8.30773C166.827 8.40375 166.827 8.59579 166.955 8.72382L170.572 12.3406C170.7 12.4686 170.892 12.4686 170.988 12.3726Z" fill="#00A5FF"/>
<path d="M170.988 12.3726L177.197 6.2913C177.325 6.19528 177.325 6.00324 177.197 5.87521L176.141 4.81899C176.045 4.69096 175.853 4.69096 175.725 4.81899L171.052 9.49198C170.956 9.62001 170.764 9.62001 170.636 9.49198L168.427 7.31552C168.299 7.2195 168.139 7.2195 168.011 7.31552L166.955 8.30773C166.827 8.40375 166.827 8.59579 166.955 8.72382L170.572 12.3406C170.7 12.4686 170.892 12.4686 170.988 12.3726Z" fill="white"/>
<path d="M2.196 38V32.483H0.036V31.7H5.247V32.483H3.087V38H2.196ZM10.7902 31.7H11.6902V38H10.7902V31.7ZM7.17223 38H6.27223V31.7H7.17223V38ZM10.8712 35.192H7.08223V34.409H10.8712V35.192ZM14.4399 34.418H17.6799V35.183H14.4399V34.418ZM14.5209 37.217H18.1929V38H13.6209V31.7H18.0669V32.483H14.5209V37.217ZM22.9672 34.679H26.2162V35.453H22.9672V34.679ZM23.0572 38H22.1572V31.7H26.6032V32.483H23.0572V38ZM30.5251 38.072C29.6971 38.072 29.0461 37.835 28.5721 37.361C28.0981 36.887 27.8611 36.194 27.8611 35.282V31.7H28.7611V35.246C28.7611 35.948 28.9141 36.461 29.2201 36.785C29.5321 37.109 29.9701 37.271 30.5341 37.271C31.1041 37.271 31.5421 37.109 31.8481 36.785C32.1601 36.461 32.3161 35.948 32.3161 35.246V31.7H33.1891V35.282C33.1891 36.194 32.9521 36.887 32.4781 37.361C32.0101 37.835 31.3591 38.072 30.5251 38.072ZM36.216 38V32.483H34.056V31.7H39.267V32.483H37.107V38H36.216ZM42.788 38.072C41.96 38.072 41.309 37.835 40.835 37.361C40.361 36.887 40.124 36.194 40.124 35.282V31.7H41.024V35.246C41.024 35.948 41.177 36.461 41.483 36.785C41.795 37.109 42.233 37.271 42.797 37.271C43.367 37.271 43.805 37.109 44.111 36.785C44.423 36.461 44.579 35.948 44.579 35.246V31.7H45.452V35.282C45.452 36.194 45.215 36.887 44.741 37.361C44.273 37.835 43.622 38.072 42.788 38.072ZM47.3421 38V31.7H49.7991C50.3511 31.7 50.8221 31.787 51.2121 31.961C51.6021 32.135 51.9021 32.387 52.1121 32.717C52.3221 33.047 52.4271 33.44 52.4271 33.896C52.4271 34.352 52.3221 34.745 52.1121 35.075C51.9021 35.399 51.6021 35.648 51.2121 35.822C50.8221 35.996 50.3511 36.083 49.7991 36.083H47.8371L48.2421 35.669V38H47.3421ZM51.5541 38L49.9521 35.714H50.9151L52.5351 38H51.5541ZM48.2421 35.759L47.8371 35.318H49.7721C50.3481 35.318 50.7831 35.195 51.0771 34.949C51.3771 34.697 51.5271 34.346 51.5271 33.896C51.5271 33.446 51.3771 33.098 51.0771 32.852C50.7831 32.606 50.3481 32.483 49.7721 32.483H47.8371L48.2421 32.033V35.759ZM54.7452 34.418H57.9852V35.183H54.7452V34.418ZM54.8262 37.217H58.4982V38H53.9262V31.7H58.3722V32.483H54.8262V37.217ZM65.3065 38.072C64.8265 38.072 64.3795 37.991 63.9655 37.829C63.5575 37.667 63.2035 37.442 62.9035 37.154C62.6035 36.86 62.3695 36.518 62.2015 36.128C62.0335 35.738 61.9495 35.312 61.9495 34.85C61.9495 34.388 62.0335 33.962 62.2015 33.572C62.3695 33.182 62.6035 32.843 62.9035 32.555C63.2035 32.261 63.5575 32.033 63.9655 31.871C64.3735 31.709 64.8205 31.628 65.3065 31.628C65.7865 31.628 66.2275 31.709 66.6295 31.871C67.0375 32.027 67.3915 32.252 67.6915 32.546C67.9975 32.834 68.2315 33.173 68.3935 33.563C68.5615 33.953 68.6455 34.382 68.6455 34.85C68.6455 35.318 68.5615 35.747 68.3935 36.137C68.2315 36.527 67.9975 36.869 67.6915 37.163C67.3915 37.451 67.0375 37.676 66.6295 37.838C66.2275 37.994 65.7865 38.072 65.3065 38.072ZM65.3065 37.271C65.6545 37.271 65.9755 37.211 66.2695 37.091C66.5695 36.971 66.8275 36.803 67.0435 36.587C67.2655 36.365 67.4365 36.107 67.5565 35.813C67.6825 35.519 67.7455 35.198 67.7455 34.85C67.7455 34.502 67.6825 34.181 67.5565 33.887C67.4365 33.593 67.2655 33.338 67.0435 33.122C66.8275 32.9 66.5695 32.729 66.2695 32.609C65.9755 32.489 65.6545 32.429 65.3065 32.429C64.9525 32.429 64.6255 32.489 64.3255 32.609C64.0315 32.729 63.7735 32.9 63.5515 33.122C63.3295 33.338 63.1555 33.593 63.0295 33.887C62.9095 34.181 62.8495 34.502 62.8495 34.85C62.8495 35.198 62.9095 35.519 63.0295 35.813C63.1555 36.107 63.3295 36.365 63.5515 36.587C63.7735 36.803 64.0315 36.971 64.3255 37.091C64.6255 37.211 64.9525 37.271 65.3065 37.271ZM70.8761 34.679H74.1251V35.453H70.8761V34.679ZM70.9661 38H70.0661V31.7H74.5121V32.483H70.9661V38ZM81.1299 38.072C80.6499 38.072 80.2029 37.991 79.7889 37.829C79.3809 37.667 79.0269 37.442 78.7269 37.154C78.4269 36.86 78.1929 36.518 78.0249 36.128C77.8569 35.738 77.7729 35.312 77.7729 34.85C77.7729 34.388 77.8569 33.962 78.0249 33.572C78.1929 33.182 78.4269 32.843 78.7269 32.555C79.0269 32.261 79.3809 32.033 79.7889 31.871C80.1969 31.709 80.6439 31.628 81.1299 31.628C81.6099 31.628 82.0509 31.709 82.4529 31.871C82.8609 32.027 83.2149 32.252 83.5149 32.546C83.8209 32.834 84.0549 33.173 84.2169 33.563C84.3849 33.953 84.4689 34.382 84.4689 34.85C84.4689 35.318 84.3849 35.747 84.2169 36.137C84.0549 36.527 83.8209 36.869 83.5149 37.163C83.2149 37.451 82.8609 37.676 82.4529 37.838C82.0509 37.994 81.6099 38.072 81.1299 38.072ZM81.1299 37.271C81.4779 37.271 81.7989 37.211 82.0929 37.091C82.3929 36.971 82.6509 36.803 82.8669 36.587C83.0889 36.365 83.2599 36.107 83.3799 35.813C83.5059 35.519 83.5689 35.198 83.5689 34.85C83.5689 34.502 83.5059 34.181 83.3799 33.887C83.2599 33.593 83.0889 33.338 82.8669 33.122C82.6509 32.9 82.3929 32.729 82.0929 32.609C81.7989 32.489 81.4779 32.429 81.1299 32.429C80.7759 32.429 80.4489 32.489 80.1489 32.609C79.8549 32.729 79.5969 32.9 79.3749 33.122C79.1529 33.338 78.9789 33.593 78.8529 33.887C78.7329 34.181 78.6729 34.502 78.6729 34.85C78.6729 35.198 78.7329 35.519 78.8529 35.813C78.9789 36.107 79.1529 36.365 79.3749 36.587C79.5969 36.803 79.8549 36.971 80.1489 37.091C80.4489 37.211 80.7759 37.271 81.1299 37.271ZM85.8895 38V31.7H86.6275L90.7945 36.875H90.4075V31.7H91.3075V38H90.5695L86.4025 32.825H86.7895V38H85.8895ZM93.2382 38V31.7H94.1382V37.217H97.5492V38H93.2382ZM98.627 38V31.7H99.527V38H98.627ZM101.458 38V31.7H102.196L106.363 36.875H105.976V31.7H106.876V38H106.138L101.971 32.825H102.358V38H101.458ZM109.626 34.418H112.866V35.183H109.626V34.418ZM109.707 37.217H113.379V38H108.807V31.7H113.253V32.483H109.707V37.217ZM118.594 38V32.483H116.434V31.7H121.645V32.483H119.485V38H118.594ZM125.166 38.072C124.338 38.072 123.687 37.835 123.213 37.361C122.739 36.887 122.502 36.194 122.502 35.282V31.7H123.402V35.246C123.402 35.948 123.555 36.461 123.861 36.785C124.173 37.109 124.611 37.271 125.175 37.271C125.745 37.271 126.183 37.109 126.489 36.785C126.801 36.461 126.957 35.948 126.957 35.246V31.7H127.83V35.282C127.83 36.194 127.593 36.887 127.119 37.361C126.651 37.835 126 38.072 125.166 38.072ZM130.857 38V32.483H128.697V31.7H133.908V32.483H131.748V38H130.857ZM137.689 38.072C137.209 38.072 136.762 37.991 136.348 37.829C135.94 37.667 135.586 37.442 135.286 37.154C134.986 36.86 134.752 36.518 134.584 36.128C134.416 35.738 134.332 35.312 134.332 34.85C134.332 34.388 134.416 33.962 134.584 33.572C134.752 33.182 134.986 32.843 135.286 32.555C135.586 32.261 135.94 32.033 136.348 31.871C136.756 31.709 137.203 31.628 137.689 31.628C138.169 31.628 138.61 31.709 139.012 31.871C139.42 32.027 139.774 32.252 140.074 32.546C140.38 32.834 140.614 33.173 140.776 33.563C140.944 33.953 141.028 34.382 141.028 34.85C141.028 35.318 140.944 35.747 140.776 36.137C140.614 36.527 140.38 36.869 140.074 37.163C139.774 37.451 139.42 37.676 139.012 37.838C138.61 37.994 138.169 38.072 137.689 38.072ZM137.689 37.271C138.037 37.271 138.358 37.211 138.652 37.091C138.952 36.971 139.21 36.803 139.426 36.587C139.648 36.365 139.819 36.107 139.939 35.813C140.065 35.519 140.128 35.198 140.128 34.85C140.128 34.502 140.065 34.181 139.939 33.887C139.819 33.593 139.648 33.338 139.426 33.122C139.21 32.9 138.952 32.729 138.652 32.609C138.358 32.489 138.037 32.429 137.689 32.429C137.335 32.429 137.008 32.489 136.708 32.609C136.414 32.729 136.156 32.9 135.934 33.122C135.712 33.338 135.538 33.593 135.412 33.887C135.292 34.181 135.232 34.502 135.232 34.85C135.232 35.198 135.292 35.519 135.412 35.813C135.538 36.107 135.712 36.365 135.934 36.587C136.156 36.803 136.414 36.971 136.708 37.091C137.008 37.211 137.335 37.271 137.689 37.271ZM142.449 38V31.7H144.906C145.458 31.7 145.929 31.787 146.319 31.961C146.709 32.135 147.009 32.387 147.219 32.717C147.429 33.047 147.534 33.44 147.534 33.896C147.534 34.352 147.429 34.745 147.219 35.075C147.009 35.399 146.709 35.648 146.319 35.822C145.929 35.996 145.458 36.083 144.906 36.083H142.944L143.349 35.669V38H142.449ZM146.661 38L145.059 35.714H146.022L147.642 38H146.661ZM143.349 35.759L142.944 35.318H144.879C145.455 35.318 145.89 35.195 146.184 34.949C146.484 34.697 146.634 34.346 146.634 33.896C146.634 33.446 146.484 33.098 146.184 32.852C145.89 32.606 145.455 32.483 144.879 32.483H142.944L143.349 32.033V35.759ZM149.033 38V31.7H149.933V38H149.033ZM151.864 38V31.7H152.602L156.769 36.875H156.382V31.7H157.282V38H156.544L152.377 32.825H152.764V38H151.864ZM162.057 38.072C161.571 38.072 161.124 37.994 160.716 37.838C160.308 37.676 159.954 37.451 159.654 37.163C159.354 36.869 159.12 36.527 158.952 36.137C158.784 35.747 158.7 35.318 158.7 34.85C158.7 34.382 158.784 33.953 158.952 33.563C159.12 33.173 159.354 32.834 159.654 32.546C159.96 32.252 160.317 32.027 160.725 31.871C161.133 31.709 161.583 31.628 162.075 31.628C162.573 31.628 163.029 31.709 163.443 31.871C163.857 32.033 164.208 32.276 164.496 32.6L163.938 33.158C163.68 32.906 163.398 32.723 163.092 32.609C162.792 32.489 162.465 32.429 162.111 32.429C161.751 32.429 161.415 32.489 161.103 32.609C160.797 32.729 160.53 32.897 160.302 33.113C160.08 33.329 159.906 33.587 159.78 33.887C159.66 34.181 159.6 34.502 159.6 34.85C159.6 35.192 159.66 35.513 159.78 35.813C159.906 36.107 160.08 36.365 160.302 36.587C160.53 36.803 160.797 36.971 161.103 37.091C161.409 37.211 161.742 37.271 162.102 37.271C162.438 37.271 162.759 37.22 163.065 37.118C163.377 37.01 163.665 36.833 163.929 36.587L164.442 37.271C164.13 37.535 163.764 37.736 163.344 37.874C162.93 38.006 162.501 38.072 162.057 38.072ZM163.578 37.154V34.814H164.442V37.271L163.578 37.154Z" fill="white"/>
</svg>
