<svg width="24" height="25" viewBox="0 0 24 25" fill="none" xmlns="http://www.w3.org/2000/svg">
<path fill-rule="evenodd" clip-rule="evenodd" d="M11.7499 4.67285C11.6589 4.67285 11.4349 4.69785 11.3159 4.93585L9.48992 8.58685C9.20092 9.16385 8.64392 9.56485 7.99992 9.65685L3.91192 10.2459C3.64192 10.2849 3.54992 10.4849 3.52192 10.5689C3.49692 10.6499 3.45692 10.8559 3.64292 11.0339L6.59892 13.8739C7.06992 14.3269 7.28392 14.9799 7.17192 15.6189L6.47592 19.6289C6.43292 19.8799 6.58992 20.0259 6.65992 20.0759C6.73392 20.1319 6.93192 20.2429 7.17692 20.1149L10.8319 18.2199C11.4079 17.9229 12.0939 17.9229 12.6679 18.2199L16.3219 20.1139C16.5679 20.2409 16.7659 20.1299 16.8409 20.0759C16.9109 20.0259 17.0679 19.8799 17.0249 19.6289L16.3269 15.6189C16.2149 14.9799 16.4289 14.3269 16.8999 13.8739L19.8559 11.0339C20.0429 10.8559 20.0029 10.6489 19.9769 10.5689C19.9499 10.4849 19.8579 10.2849 19.5879 10.2459L15.4999 9.65685C14.8569 9.56485 14.2999 9.16385 14.0109 8.58585L12.1829 4.93585C12.0649 4.69785 11.8409 4.67285 11.7499 4.67285ZM6.94692 21.6729C6.53392 21.6729 6.12392 21.5429 5.77292 21.2869C5.16692 20.8429 4.86992 20.1099 4.99892 19.3719L5.69492 15.3619C5.72092 15.2129 5.66992 15.0619 5.55992 14.9559L2.60392 12.1159C2.05992 11.5949 1.86492 10.8249 2.09492 10.1099C2.32692 9.38685 2.94092 8.86985 3.69792 8.76185L7.78592 8.17285C7.94392 8.15085 8.07992 8.05385 8.14792 7.91585L9.97492 4.26385C10.3119 3.59085 10.9919 3.17285 11.7499 3.17285C12.5079 3.17285 13.1879 3.59085 13.5249 4.26385L15.3529 7.91485C15.4219 8.05385 15.5569 8.15085 15.7139 8.17285L19.8019 8.76185C20.5589 8.86985 21.1729 9.38685 21.4049 10.1099C21.6349 10.8249 21.4389 11.5949 20.8949 12.1159L17.9389 14.9559C17.8289 15.0619 17.7789 15.2129 17.8049 15.3609L18.5019 19.3719C18.6299 20.1109 18.3329 20.8439 17.7259 21.2869C17.1109 21.7379 16.3099 21.7989 15.6309 21.4449L11.9779 19.5519C11.8349 19.4779 11.6639 19.4779 11.5209 19.5519L7.86792 21.4459C7.57592 21.5979 7.26092 21.6729 6.94692 21.6729Z" fill="#1D1E21"/>
<path d="M11.3159 4.93585L11.4277 4.99177L11.4277 4.99175L11.3159 4.93585ZM9.48992 8.58685L9.60168 8.64283L9.60171 8.64277L9.48992 8.58685ZM7.99992 9.65685L7.98224 9.53311L7.98209 9.53313L7.99992 9.65685ZM3.91192 10.2459L3.89409 10.1221L3.89405 10.1221L3.91192 10.2459ZM3.52192 10.5689L3.4033 10.5293L3.40248 10.532L3.52192 10.5689ZM3.64292 11.0339L3.72952 10.9437L3.72934 10.9435L3.64292 11.0339ZM6.59892 13.8739L6.68557 13.7838L6.68552 13.7837L6.59892 13.8739ZM7.17192 15.6189L7.04879 15.5973L7.04876 15.5975L7.17192 15.6189ZM6.47592 19.6289L6.35276 19.6075L6.35271 19.6077L6.47592 19.6289ZM6.65992 20.0759L6.73537 19.9761L6.73257 19.9741L6.65992 20.0759ZM7.17692 20.1149L7.11938 20.0039L7.11903 20.0041L7.17692 20.1149ZM10.8319 18.2199L10.7746 18.1088L10.7744 18.1089L10.8319 18.2199ZM12.6679 18.2199L12.7254 18.1089L12.7254 18.1088L12.6679 18.2199ZM16.3219 20.1139L16.2644 20.2248L16.2646 20.2249L16.3219 20.1139ZM16.8409 20.0759L16.7683 19.9741L16.7679 19.9744L16.8409 20.0759ZM17.0249 19.6289L17.1481 19.6077L17.1481 19.6074L17.0249 19.6289ZM16.3269 15.6189L16.4501 15.5974L16.45 15.5973L16.3269 15.6189ZM16.8999 13.8739L16.8133 13.7837L16.8133 13.7838L16.8999 13.8739ZM19.8559 11.0339L19.7697 10.9433L19.7693 10.9437L19.8559 11.0339ZM19.9769 10.5689L19.8579 10.6071L19.858 10.6075L19.9769 10.5689ZM19.5879 10.2459L19.6058 10.1221L19.6057 10.1221L19.5879 10.2459ZM15.4999 9.65685L15.5177 9.53313L15.5176 9.53311L15.4999 9.65685ZM14.0109 8.58585L14.1227 8.52995L14.1227 8.52988L14.0109 8.58585ZM12.1829 4.93585L12.0709 4.99138L12.0711 4.99183L12.1829 4.93585ZM5.77292 21.2869L5.69904 21.3877L5.69926 21.3878L5.77292 21.2869ZM4.99892 19.3719L5.12205 19.3934L5.12207 19.3932L4.99892 19.3719ZM5.69492 15.3619L5.57178 15.3404L5.57176 15.3405L5.69492 15.3619ZM5.55992 14.9559L5.64665 14.8658L5.64652 14.8657L5.55992 14.9559ZM2.60392 12.1159L2.69052 12.0257L2.69038 12.0256L2.60392 12.1159ZM2.09492 10.1099L2.21391 10.1481L2.21394 10.148L2.09492 10.1099ZM3.69792 8.76185L3.71557 8.8856L3.71574 8.88557L3.69792 8.76185ZM7.78592 8.17285L7.76868 8.04904L7.76809 8.04913L7.78592 8.17285ZM8.14792 7.91585L8.03612 7.85992L8.03579 7.8606L8.14792 7.91585ZM9.97492 4.26385L9.86315 4.20788L9.86312 4.20793L9.97492 4.26385ZM13.5249 4.26385L13.6367 4.20789L13.6367 4.20788L13.5249 4.26385ZM15.3529 7.91485L15.4649 7.85927L15.4647 7.85889L15.3529 7.91485ZM15.7139 8.17285L15.7317 8.04913L15.7313 8.04906L15.7139 8.17285ZM19.8019 8.76185L19.7841 8.88557L19.7843 8.8856L19.8019 8.76185ZM21.4049 10.1099L21.2859 10.148L21.2859 10.1481L21.4049 10.1099ZM20.8949 12.1159L20.8085 12.0256L20.8083 12.0257L20.8949 12.1159ZM17.9389 14.9559L17.8523 14.8657L17.8522 14.8658L17.9389 14.9559ZM17.8049 15.3609L17.9281 15.3395L17.928 15.3392L17.8049 15.3609ZM18.5019 19.3719L18.6251 19.3505L18.6251 19.3505L18.5019 19.3719ZM17.7259 21.2869L17.6522 21.1859L17.652 21.1861L17.7259 21.2869ZM15.6309 21.4449L15.6887 21.334L15.6884 21.3339L15.6309 21.4449ZM11.9779 19.5519L12.0354 19.4409L12.0354 19.4408L11.9779 19.5519ZM11.5209 19.5519L11.4635 19.4408L11.4634 19.4409L11.5209 19.5519ZM7.86792 21.4459L7.81038 21.3349L7.8102 21.335L7.86792 21.4459ZM11.7499 4.54785C11.6423 4.54785 11.3552 4.57779 11.2041 4.87995L11.4277 4.99175C11.5146 4.81792 11.6756 4.79785 11.7499 4.79785V4.54785ZM11.2041 4.87994L9.37812 8.53094L9.60171 8.64277L11.4277 4.99177L11.2041 4.87994ZM9.37815 8.53087C9.1076 9.07105 8.58586 9.44688 7.98224 9.53311L8.01759 9.7806C8.70197 9.68283 9.29424 9.25666 9.60168 8.64283L9.37815 8.53087ZM7.98209 9.53313L3.89409 10.1221L3.92974 10.3696L8.01774 9.78057L7.98209 9.53313ZM3.89405 10.1221C3.55479 10.1711 3.43741 10.4271 3.40333 10.5293L3.6405 10.6084C3.66242 10.5426 3.72904 10.3986 3.92979 10.3696L3.89405 10.1221ZM3.40248 10.532C3.37207 10.6305 3.31946 10.8973 3.55649 11.1242L3.72934 10.9435C3.59437 10.8144 3.62177 10.6692 3.64136 10.6057L3.40248 10.532ZM3.55631 11.124L6.51231 13.964L6.68552 13.7837L3.72952 10.9437L3.55631 11.124ZM6.51227 13.9639C6.95348 14.3883 7.15356 14.9995 7.04879 15.5973L7.29504 15.6404C7.41427 14.9602 7.18635 14.2654 6.68557 13.7838L6.51227 13.9639ZM7.04876 15.5975L6.35276 19.6075L6.59907 19.6502L7.29507 15.6402L7.04876 15.5975ZM6.35271 19.6077C6.29772 19.9287 6.50143 20.1163 6.58726 20.1776L6.73257 19.9741C6.6784 19.9354 6.56811 19.831 6.59912 19.65L6.35271 19.6077ZM6.58449 20.1755C6.67574 20.2446 6.9275 20.3862 7.2348 20.2256L7.11903 20.0041C6.93634 20.0995 6.79209 20.0191 6.73535 19.9762L6.58449 20.1755ZM7.23445 20.2258L10.8895 18.3308L10.7744 18.1089L7.11938 20.0039L7.23445 20.2258ZM10.8892 18.331C11.4293 18.0525 12.0726 18.0525 12.6105 18.3309L12.7254 18.1088C12.1153 17.7932 11.3865 17.7933 10.7746 18.1088L10.8892 18.331ZM12.6104 18.3308L16.2644 20.2248L16.3794 20.0029L12.7254 18.1089L12.6104 18.3308ZM16.2646 20.2249C16.5727 20.384 16.8237 20.2422 16.914 20.1773L16.7679 19.9744C16.7081 20.0175 16.5632 20.0977 16.3793 20.0028L16.2646 20.2249ZM16.9136 20.1776C16.9994 20.1163 17.2031 19.9287 17.1481 19.6077L16.9017 19.65C16.9327 19.831 16.8224 19.9354 16.7683 19.9741L16.9136 20.1776ZM17.1481 19.6074L16.4501 15.5974L16.2038 15.6403L16.9018 19.6503L17.1481 19.6074ZM16.45 15.5973C16.3453 14.9995 16.5454 14.3883 16.9866 13.9639L16.8133 13.7838C16.3125 14.2654 16.0846 14.9602 16.2038 15.6404L16.45 15.5973ZM16.9865 13.964L19.9425 11.124L19.7693 10.9437L16.8133 13.7837L16.9865 13.964ZM19.9421 11.1244C20.1803 10.8976 20.1281 10.6296 20.0958 10.5302L19.858 10.6075C19.8777 10.6681 19.9055 10.8141 19.7697 10.9433L19.9421 11.1244ZM20.0959 10.5306C20.0626 10.4269 19.945 10.1711 19.6058 10.1221L19.57 10.3696C19.7709 10.3986 19.8372 10.5428 19.8579 10.6071L20.0959 10.5306ZM19.6057 10.1221L15.5177 9.53313L15.4821 9.78057L19.5701 10.3696L19.6057 10.1221ZM15.5176 9.53311C14.915 9.44689 14.3933 9.07111 14.1227 8.52995L13.8991 8.64175C14.2065 9.2566 14.7988 9.68281 15.4822 9.78059L15.5176 9.53311ZM14.1227 8.52988L12.2947 4.87988L12.0711 4.99183L13.8991 8.64183L14.1227 8.52988ZM12.2949 4.88033C12.1449 4.57774 11.8574 4.54785 11.7499 4.54785V4.79785C11.8244 4.79785 11.9849 4.81797 12.0709 4.99138L12.2949 4.88033ZM6.94692 21.5479C6.56036 21.5479 6.17616 21.4262 5.84657 21.1859L5.69926 21.3878C6.07167 21.6595 6.50747 21.7979 6.94692 21.7979V21.5479ZM5.84679 21.186C5.27889 20.7699 5.00129 20.0842 5.12205 19.3934L4.87578 19.3503C4.73854 20.1355 5.05495 20.9158 5.69904 21.3877L5.84679 21.186ZM5.12207 19.3932L5.81807 15.3832L5.57176 15.3405L4.87576 19.3505L5.12207 19.3932ZM5.81806 15.3833C5.85141 15.1922 5.78563 14.9998 5.64665 14.8658L5.47318 15.0459C5.5542 15.1239 5.59042 15.2335 5.57178 15.3404L5.81806 15.3833ZM5.64652 14.8657L2.69052 12.0257L2.51731 12.206L5.47331 15.046L5.64652 14.8657ZM2.69038 12.0256C2.18086 11.5376 1.99859 10.8175 2.21391 10.1481L1.97592 10.0716C1.73124 10.8322 1.93897 11.6521 2.51746 12.2061L2.69038 12.0256ZM2.21394 10.148C2.43122 9.47092 3.00564 8.98688 3.71557 8.8856L3.68026 8.6381C2.8762 8.75282 2.22261 9.30278 1.97589 10.0717L2.21394 10.148ZM3.71574 8.88557L7.80374 8.29657L7.76809 8.04913L3.68009 8.63813L3.71574 8.88557ZM7.80315 8.29666C8.00074 8.26915 8.17309 8.14756 8.26004 7.9711L8.03579 7.8606C7.98674 7.96014 7.88709 8.03256 7.76868 8.04905L7.80315 8.29666ZM8.25971 7.97178L10.0867 4.31978L9.86312 4.20793L8.03613 7.85993L8.25971 7.97178ZM10.0867 4.31982C10.4023 3.68951 11.0388 3.29785 11.7499 3.29785V3.04785C10.945 3.04785 10.2215 3.4922 9.86315 4.20788L10.0867 4.31982ZM11.7499 3.29785C12.461 3.29785 13.0975 3.68951 13.4131 4.31982L13.6367 4.20788C13.2783 3.4922 12.5548 3.04785 11.7499 3.04785V3.29785ZM13.4131 4.31981L15.2411 7.97081L15.4647 7.85889L13.6367 4.20789L13.4131 4.31981ZM15.241 7.97043C15.3286 8.14697 15.4993 8.26901 15.6966 8.29664L15.7313 8.04906C15.6145 8.0327 15.5152 7.96074 15.4649 7.85927L15.241 7.97043ZM15.6961 8.29657L19.7841 8.88557L19.8197 8.63813L15.7317 8.04913L15.6961 8.29657ZM19.7843 8.8856C20.4942 8.98688 21.0686 9.47092 21.2859 10.148L21.5239 10.0717C21.2772 9.30278 20.6236 8.75282 19.8196 8.6381L19.7843 8.8856ZM21.2859 10.1481C21.5012 10.8174 21.3181 11.5375 20.8085 12.0256L20.9814 12.2061C21.5598 11.6522 21.7686 10.8323 21.5239 10.0716L21.2859 10.1481ZM20.8083 12.0257L17.8523 14.8657L18.0255 15.046L20.9815 12.206L20.8083 12.0257ZM17.8522 14.8658C17.7129 15.0001 17.6485 15.1927 17.6818 15.3825L17.928 15.3392C17.9094 15.233 17.945 15.1236 18.0257 15.0459L17.8522 14.8658ZM17.6818 15.3823L18.3788 19.3933L18.6251 19.3505L17.9281 15.3395L17.6818 15.3823ZM18.3787 19.3932C18.4986 20.0852 18.2209 20.7709 17.6522 21.1859L17.7996 21.3878C18.4449 20.9169 18.7612 20.1365 18.6251 19.3505L18.3787 19.3932ZM17.652 21.1861C17.0755 21.6088 16.3256 21.666 15.6887 21.334L15.5731 21.5557C16.2943 21.9317 17.1463 21.8669 17.7998 21.3877L17.652 21.1861ZM15.6884 21.3339L12.0354 19.4409L11.9204 19.6628L15.5734 21.5558L15.6884 21.3339ZM12.0354 19.4408C11.8563 19.3482 11.6425 19.3482 11.4635 19.4408L11.5784 19.6629C11.6853 19.6075 11.8135 19.6075 11.9205 19.6629L12.0354 19.4408ZM11.4634 19.4409L7.81038 21.3349L7.92545 21.5568L11.5785 19.6628L11.4634 19.4409ZM7.8102 21.335C7.53607 21.4777 7.24088 21.5479 6.94692 21.5479V21.7979C7.28095 21.7979 7.61576 21.718 7.92563 21.5567L7.8102 21.335Z" fill="#1D1E21"/>
</svg>
