<svg width="24" height="25" viewBox="0 0 24 25" fill="none" xmlns="http://www.w3.org/2000/svg">
<path fill-rule="evenodd" clip-rule="evenodd" d="M17.8572 20.59C19.7302 20.59 21.2492 19.072 21.2502 17.199V17.197V14.497C20.0132 14.497 19.0112 13.495 19.0102 12.258C19.0102 11.022 20.0122 10.019 21.2492 10.019H21.2502V7.31897C21.2522 5.44497 19.7352 3.92497 17.8622 3.92297H17.8562H6.14424C4.27024 3.92297 2.75124 5.44097 2.75024 7.31497V7.31597V10.106C3.94424 10.064 4.94524 10.998 4.98724 12.192C4.98824 12.214 4.98924 12.236 4.98924 12.258C4.99024 13.493 3.99124 14.495 2.75624 14.497H2.75024V17.197C2.74924 19.07 4.26824 20.59 6.14124 20.59H6.14224H17.8572Z" stroke="#130F26" stroke-width="1.5" stroke-linecap="round" stroke-linejoin="round"/>
<path fill-rule="evenodd" clip-rule="evenodd" d="M12.3713 9.236L12.9873 10.483C13.0473 10.605 13.1633 10.69 13.2983 10.71L14.6753 10.911C15.0163 10.961 15.1513 11.379 14.9053 11.618L13.9093 12.588C13.8113 12.683 13.7673 12.82 13.7893 12.955L14.0243 14.325C14.0823 14.664 13.7273 14.922 13.4233 14.762L12.1923 14.115C12.0713 14.051 11.9273 14.051 11.8063 14.115L10.5763 14.762C10.2713 14.922 9.91634 14.664 9.97434 14.325L10.2093 12.955C10.2323 12.82 10.1873 12.683 10.0893 12.588L9.09434 11.618C8.84834 11.379 8.98334 10.961 9.32334 10.911L10.7003 10.71C10.8353 10.69 10.9523 10.605 11.0123 10.483L11.6273 9.236C11.7793 8.928 12.2193 8.928 12.3713 9.236Z" stroke="#130F26" stroke-width="1.5" stroke-linecap="round" stroke-linejoin="round"/>
</svg>
